<svg width="577" height="450" viewBox="0 0 577 450" fill="none" xmlns="http://www.w3.org/2000/svg">
<g clip-path="url(#clip0_15_14)">
<path d="M31.4388 282.697L24.0639 286.479L21.1604 282.408L32.1548 274.574C34.0008 273.259 36.258 271.487 38.9264 269.258C41.3776 267.184 43.2276 265.702 44.4763 264.812C51.9688 259.473 58.149 256.829 63.0169 256.881C67.9391 256.893 72.0068 259.152 75.22 263.657C77.9685 267.51 79.217 271.614 78.9653 275.968C78.7136 280.323 76.912 284.226 73.5604 287.678C78.6952 283.856 83.6653 282.156 88.4709 282.579C93.2766 283.002 97.2472 285.412 100.383 289.808C104.293 295.29 105.532 301.161 104.101 307.42C102.723 313.64 97.5556 319.942 88.5972 326.325C86.6426 327.718 84.7114 328.971 82.8036 330.085C78.4526 332.94 75.8699 334.658 75.0555 335.238L64.224 342.956L61.3787 338.967L67.5575 333.336L31.4388 282.697ZM55.5177 298.202C56.3165 297.715 57.8832 296.639 60.2178 294.976L64.697 291.784C68.4975 289.076 70.6202 285.967 71.0649 282.458C71.5097 278.948 70.3384 275.239 67.5511 271.332C64.8413 267.532 61.8896 265.461 58.6963 265.117C55.4642 264.718 51.4864 266.202 46.7629 269.568C44.8084 270.96 42.8769 272.5 40.9687 274.188L39.3746 275.569L55.5177 298.202ZM76.3643 327.429C77.9227 326.973 80.9008 325.179 85.2986 322.045C90.7822 318.138 93.952 314.201 94.808 310.235C95.6796 306.176 94.6056 302.029 91.586 297.796C88.6051 293.617 85.3514 291.351 81.8247 290.999C78.3523 290.608 74.2272 292.115 69.4494 295.519C63.9115 299.465 60.4483 302.015 59.0598 303.168L76.3643 327.429ZM140.567 289.908C133.997 294.589 127.446 296.024 120.913 294.212C114.434 292.362 108.64 287.854 103.53 280.69C100.162 275.968 98.0962 271.178 97.3328 266.319C96.5695 261.46 97.0926 256.912 98.9023 252.676C100.766 248.401 103.761 244.793 107.888 241.853C112.937 238.255 117.853 236.881 122.635 237.73C127.432 238.486 131.771 241.411 135.65 246.506C138.011 249.817 139.621 252.476 140.48 254.483L112.465 274.446C116.406 279.742 120.752 283.194 125.502 284.803C130.214 286.357 134.768 285.567 139.166 282.433C141.338 280.886 143.32 278.901 145.113 276.477C146.921 273.961 148.089 271.696 148.618 269.682L152.721 272.161C152.307 274.911 150.979 277.986 148.736 281.385C146.493 284.784 143.77 287.625 140.567 289.908ZM129.014 256.146C128.364 254.89 127.613 253.665 126.762 252.471C124.191 248.982 121.457 246.755 118.558 245.792C115.676 244.735 112.687 245.309 109.592 247.514C106.443 249.758 104.731 252.697 104.457 256.331C104.237 259.926 105.908 264.506 109.469 270.073L129.014 256.146ZM178.7 262.613C175.605 264.818 172.794 265.757 170.267 265.429C167.741 265.101 165.258 263.228 162.819 259.808L140.521 228.546L134.657 232.724L132.044 229.06C132.277 228.813 132.901 228.081 133.918 226.866C134.934 225.65 135.563 224.752 135.804 224.171C136.324 223.064 136.306 221.603 135.749 219.79C135.448 218.449 134.783 216.426 133.754 213.721C132.726 211.016 132.111 209.407 131.91 208.896L136.714 205.472L145.239 217.079L158.84 207.388L162.672 212.761L149.072 222.453L166.899 247.446C169.105 250.54 170.735 252.653 171.789 253.785C172.896 254.879 173.884 255.403 174.752 255.357C175.675 255.273 176.896 254.689 178.416 253.606C179.882 252.561 181.348 251.23 182.815 249.612C184.336 247.956 185.43 246.562 186.097 245.431L189.932 248.224C189.326 250.13 187.886 252.589 185.612 255.6C183.393 258.573 181.088 260.911 178.7 262.613ZM211.864 238.982C208.769 241.187 205.959 242.125 203.432 241.798C200.905 241.47 198.422 239.596 195.983 236.177L173.685 204.914L167.821 209.092L165.208 205.429C165.441 205.181 166.066 204.45 167.082 203.234C168.099 202.019 168.727 201.12 168.968 200.54C169.488 199.432 169.47 197.972 168.914 196.158C168.612 194.817 167.947 192.794 166.919 190.089C165.89 187.384 165.275 185.776 165.074 185.264L169.879 181.84L178.404 193.448L192.004 183.757L195.837 189.13L182.236 198.821L200.063 223.815C202.27 226.908 203.9 229.021 204.953 230.154C206.061 231.247 207.049 231.771 207.917 231.726C208.839 231.641 210.061 231.057 211.581 229.974C213.047 228.93 214.513 227.598 215.979 225.98C217.5 224.324 218.594 222.93 219.262 221.8L223.096 224.593C222.49 226.498 221.05 228.957 218.777 231.969C216.557 234.942 214.253 237.279 211.864 238.982ZM251.195 211.079C244.625 215.76 238.074 217.195 231.541 215.383C225.062 213.533 219.268 209.025 214.158 201.861C210.79 197.139 208.724 192.349 207.961 187.49C207.197 182.631 207.72 178.083 209.53 173.847C211.394 169.572 214.389 165.964 218.515 163.024C223.565 159.426 228.48 158.052 233.262 158.901C238.06 159.657 242.398 162.583 246.278 167.677C248.639 170.988 250.249 173.647 251.108 175.655L223.093 195.617C227.034 200.913 231.379 204.365 236.13 205.974C240.841 207.528 245.396 206.738 249.794 203.605C251.966 202.057 253.948 200.072 255.74 197.648C257.549 195.132 258.717 192.867 259.246 190.853L263.348 193.332C262.935 196.083 261.607 199.157 259.364 202.557C257.121 205.956 254.398 208.797 251.195 211.079ZM239.642 177.317C238.992 176.061 238.241 174.836 237.389 173.642C234.819 170.153 232.084 167.926 229.186 166.963C226.303 165.906 223.315 166.481 220.22 168.686C217.071 170.93 215.359 173.868 215.085 177.502C214.865 181.097 216.535 185.678 220.096 191.244L239.642 177.317ZM272.138 188.788L277.897 183.948L253.334 149.51L246.426 152.223L243.29 147.827L253.483 138.353L253.646 138.237L256.483 138.426L257.528 139.891L261.813 146.415L262.058 146.241C261.942 144.932 262.068 143.041 262.434 140.57C262.801 138.099 263.671 135.473 265.046 132.693C266.381 129.858 268.352 127.512 270.958 125.655C272.044 124.882 273.037 124.379 273.936 124.147L280.44 133.266C279.866 133.265 279.067 133.466 278.044 133.868C277.036 134.177 276.016 134.699 274.985 135.434C270.478 138.645 267.285 143.008 265.404 148.522L286.309 177.831L297.117 171.112L299.904 175.02L274.983 192.778L272.138 188.788Z" fill="#476C8E"/>
<path d="M170.669 307.526L163.376 311.25L160.473 307.179L183.846 290.524L186.749 294.595L179.384 301.317L215.502 351.955L235.991 336.251L231.041 319.15L236.531 316.343L246.862 336.854L203.455 367.785L200.609 363.795L206.788 358.165L170.669 307.526ZM226.401 271.007C224.664 272.245 223.012 272.685 221.447 272.327C219.881 271.969 218.556 271.03 217.472 269.51C216.234 267.773 215.724 265.968 215.942 264.093C216.215 262.179 217.275 260.565 219.12 259.249C220.966 257.934 222.672 257.455 224.238 257.813C225.803 258.171 227.128 259.11 228.212 260.63C229.528 262.475 230.03 264.327 229.719 266.187C229.461 268.007 228.383 269.595 226.482 270.949L226.401 271.007ZM233.422 287.738L226.187 290.683L223.109 286.368L234.629 275.826L234.792 275.71L237.71 275.841L266.338 315.977L273.318 311.986L276.163 315.975L254.582 331.354L251.736 327.364L257.81 321.931L233.422 287.738ZM260.066 267.402L252.41 272.856L249.739 269.111L256.291 262.11L253.562 258.283C251.162 254.918 249.824 251.206 249.548 247.145C249.327 243.046 250.047 239.177 251.709 235.537C253.387 231.804 255.827 228.796 259.03 226.514C260.876 225.198 262.652 224.301 264.358 223.823L270.165 231.964C269.366 231.878 268.099 232.167 266.362 232.832C264.64 233.403 262.911 234.308 261.174 235.546C258.622 237.365 257.233 239.378 257.006 241.586C256.795 243.701 257.851 246.386 260.174 249.643L264.761 256.075L276 248.066L279.774 253.358L268.536 261.366L293.621 296.537L303.126 290.747L305.971 294.736L281.539 312.145L278.694 308.156L285.093 302.49L260.066 267.402ZM335.227 275.24C328.657 279.921 322.106 281.356 315.573 279.544C309.094 277.694 303.3 273.186 298.19 266.022C294.822 261.3 292.756 256.51 291.993 251.651C291.23 246.792 291.753 242.244 293.562 238.008C295.426 233.733 298.421 230.125 302.548 227.185C307.597 223.587 312.513 222.213 317.295 223.062C322.092 223.818 326.431 226.743 330.31 231.838C332.671 235.149 334.281 237.808 335.14 239.815L307.125 259.778C311.066 265.074 315.412 268.526 320.162 270.135C324.874 271.689 329.428 270.899 333.826 267.765C335.998 266.218 337.98 264.233 339.773 261.809C341.581 259.293 342.749 257.028 343.278 255.014L347.381 257.493C346.967 260.243 345.639 263.318 343.396 266.717C341.153 270.117 338.43 272.957 335.227 275.24ZM323.674 241.478C323.024 240.222 322.273 238.997 321.422 237.803C318.851 234.314 316.117 232.087 313.218 231.124C310.336 230.067 307.347 230.641 304.252 232.846C301.103 235.09 299.391 238.029 299.117 241.663C298.897 245.258 300.568 249.838 304.129 255.405L323.674 241.478ZM379.444 243.732C376.621 245.744 373.922 247.299 371.348 248.397C368.773 249.494 365.866 250.584 362.624 251.665C360.57 252.229 359.116 252.774 358.263 253.3L348.404 238.1L353.616 234.386L362.549 243.983C364.092 244.194 366.146 243.917 368.713 243.152C371.295 242.295 373.834 240.976 376.332 239.197C380.458 236.257 382.922 233.109 383.723 229.755C384.579 226.362 383.845 223.038 381.522 219.781C380.012 217.664 378.118 216.272 375.84 215.603C373.616 214.896 371.139 214.696 368.411 215.003C365.736 215.272 362.193 215.873 357.782 216.806C353.774 217.615 350.126 218.127 346.839 218.341C343.607 218.516 340.316 218.036 336.969 216.901C333.637 215.674 330.79 213.405 328.428 210.094C326.299 207.109 325.189 203.888 325.099 200.433C325.025 196.884 325.997 193.367 328.015 189.883C330.088 186.359 333.133 183.166 337.15 180.303C339.648 178.524 341.982 177.147 344.154 176.173C346.379 175.16 348.946 174.109 351.853 173.019C353.21 172.625 354.308 172.212 355.145 171.779L364.412 185.804L359.444 189.344L350.673 180.491C349.743 180.335 348.235 180.632 346.149 181.381C344.118 182.092 342.097 183.163 340.089 184.595C336.342 187.264 334.053 190.082 333.221 193.049C332.444 195.977 333.12 198.934 335.249 201.919C336.797 204.09 338.664 205.502 340.85 206.155C343.089 206.769 345.446 206.973 347.919 206.766C350.391 206.559 354.167 205.997 359.245 205.08C363.974 204.248 367.936 203.717 371.129 203.488C374.323 203.259 377.501 203.696 380.663 204.799C383.84 205.81 386.513 207.835 388.681 210.874C390.732 213.751 391.892 217.099 392.16 220.919C392.483 224.7 391.607 228.639 389.534 232.736C387.477 236.74 384.113 240.405 379.444 243.732ZM421.714 213.49C418.62 215.695 415.809 216.633 413.282 216.305C410.756 215.978 408.273 214.104 405.834 210.685L383.536 179.422L377.672 183.6L375.059 179.937C375.292 179.689 375.916 178.957 376.933 177.742C377.949 176.527 378.578 175.628 378.818 175.048C379.339 173.94 379.321 172.48 378.764 170.666C378.463 169.325 377.798 167.302 376.769 164.597C375.74 161.892 375.126 160.284 374.924 159.772L379.729 156.348L388.254 167.956L401.855 158.265L405.687 163.638L392.087 173.329L409.914 198.323C412.12 201.416 413.75 203.529 414.804 204.662C415.911 205.755 416.899 206.279 417.767 206.233C418.69 206.149 419.911 205.565 421.431 204.482C422.897 203.438 424.363 202.106 425.83 200.488C427.35 198.832 428.445 197.438 429.112 196.308L432.947 199.101C432.341 201.006 430.901 203.465 428.627 206.477C426.408 209.45 424.103 211.787 421.714 213.49ZM461.428 214.538C460.505 215.196 459.543 215.799 458.543 216.349C457.597 216.859 456.856 217.141 456.321 217.195L451.269 210.112C451.75 210.097 452.49 209.815 453.491 209.266C454.545 208.678 455.507 208.074 456.376 207.455C458.982 205.599 460.604 203.051 461.242 199.813C461.974 196.59 461.424 191.743 459.592 185.272L455.683 188.057L411.465 158.784L406.964 160.395L404.235 156.569L423.862 142.583L426.591 146.41L421.017 151.855L446.128 170.185L458.353 179.401L453.318 164.938L443.494 135.838L437.341 138.749L434.612 134.923L450.981 123.259L453.711 127.085L450.335 130.964C459.775 161.075 464.97 178.288 465.919 182.605C467.403 188.588 468.313 193.424 468.651 197.112C469.028 200.855 468.669 204.14 467.573 206.967C466.517 209.848 464.468 212.372 461.428 214.538ZM449.603 100.788L442.368 104.593L439.871 101.092L451.879 90.2025L452.042 90.0864L454.705 90.0309L498.082 150.846L505.469 146.565L508.314 150.554L486.326 166.222L483.48 162.233L489.554 156.8L449.603 100.788ZM534.77 133.054C528.201 137.735 521.65 139.169 515.117 137.358C508.638 135.507 502.843 131 497.733 123.835C494.365 119.113 492.3 114.323 491.536 109.464C490.773 104.605 491.296 100.058 493.106 95.8213C494.97 91.5462 497.965 87.9385 502.091 84.9983C507.14 81.4004 512.056 80.0261 516.838 80.8754C521.636 81.6317 525.974 84.557 529.853 89.6513C532.215 92.9621 533.825 95.6213 534.684 97.6289L506.668 117.591C510.609 122.887 514.955 126.34 519.706 127.948C524.417 129.502 528.972 128.713 533.37 125.579C535.541 124.032 537.524 122.046 539.316 119.623C541.124 117.106 542.293 114.841 542.822 112.827L546.924 115.307C546.511 118.057 545.183 121.132 542.94 124.531C540.697 127.93 537.974 130.771 534.77 133.054ZM523.218 99.2912C522.568 98.0354 521.817 96.8104 520.965 95.6164C518.394 92.1272 515.66 89.9008 512.762 88.9372C509.879 87.8806 506.89 88.4548 503.796 90.66C500.647 92.9039 498.935 95.8426 498.661 99.4762C498.441 103.071 500.111 107.652 503.672 113.219L523.218 99.2912Z" fill="#FD75AA"/>
<rect width="281.768" height="33.0052" rx="16.5026" transform="matrix(0.826237 -0.563323 0.563703 0.825978 76.9707 191.926)" fill="#FD75AA"/>
<rect width="40.0135" height="40.0063" rx="20.0031" transform="matrix(0.826237 -0.563323 0.563703 0.825978 314.346 22.5405)" fill="#FD75AA"/>
<rect width="281.769" height="33.0051" rx="16.5026" transform="matrix(0.828428 -0.560095 0.560475 0.828171 207.698 389.817)" fill="#476C8E"/>
<rect width="40.0136" height="40.0062" rx="20.0031" transform="matrix(0.828428 -0.560095 0.560475 0.828171 166.015 417.069)" fill="#476C8E"/>
</g>
<defs>
<clipPath id="clip0_15_14">
<rect width="577" height="450" fill="white"/>
</clipPath>
</defs>
</svg>
